<svg width="801" height="752" viewBox="0 0 801 752" fill="none" xmlns="http://www.w3.org/2000/svg">
<path fill-rule="evenodd" clip-rule="evenodd" d="M675.008 160.08L675.008 583.669C675.008 604.71 657.806 621.929 636.782 621.929L103.234 621.929C82.2091 621.929 65.0083 604.71 65.0083 583.669L65.0084 160.08L675.008 160.08Z" fill="#E8E8E7"/>
<path fill-rule="evenodd" clip-rule="evenodd" d="M700.575 160.171L700.575 555.622C700.575 575.268 683.452 591.342 662.526 591.342L137.979 591.342C117.054 591.342 99.9298 575.268 99.9298 555.622L99.9298 160.171L700.575 160.171Z" fill="#5F1316"/>
<path fill-rule="evenodd" clip-rule="evenodd" d="M700.575 375.751L700.575 555.616C700.575 575.261 683.452 591.336 662.526 591.336L137.979 591.336C117.054 591.336 99.9298 575.261 99.9298 555.616L99.9298 375.751L700.575 375.751Z" fill="#3B1516"/>
<path fill-rule="evenodd" clip-rule="evenodd" d="M539.375 381.776L474.354 381.776C474.798 399.49 477.202 416.265 481.192 431.456L481.324 431.949C488.179 429.491 494.586 426.727 500.466 423.698C522.155 412.522 536.482 397.851 539.375 381.776ZM481.33 319.556C477.259 334.887 474.804 351.832 474.354 369.724L539.375 369.724C536.482 353.651 522.155 338.977 500.466 327.801C494.586 324.775 488.182 322.011 481.33 319.556V319.556ZM406.672 306.587L406.672 369.724L461.508 369.724C461.967 350.825 464.572 332.859 468.912 316.55L469.155 315.644C450.546 310.326 429.319 307.099 406.672 306.587V306.587ZM331.343 315.645L331.622 316.678C335.944 332.958 338.538 350.881 338.996 369.724L393.834 369.724L393.834 306.587C371.183 307.102 349.952 310.326 331.343 315.645V315.645ZM261.13 369.724C264.022 353.651 278.35 338.977 300.039 327.801C305.92 324.772 312.326 322.009 319.182 319.551C323.25 334.878 325.7 351.824 326.152 369.724L261.13 369.724ZM319.182 431.951L319.248 431.696C323.278 416.436 325.706 399.581 326.152 381.776L261.13 381.776C264.022 397.851 278.348 412.522 300.039 423.698C305.92 426.727 312.326 429.491 319.182 431.951V431.951ZM393.834 444.914L393.834 381.776L338.996 381.776C338.54 400.52 335.97 418.354 331.688 434.57L331.343 435.856C349.952 441.173 371.183 444.402 393.834 444.914V444.914ZM469.162 435.856C469.023 435.348 468.888 434.84 468.752 434.329C464.511 418.177 461.963 400.424 461.508 381.776L406.672 381.776L406.672 444.914C429.32 444.4 450.552 441.173 469.162 435.856ZM552.756 375.751C552.756 415.281 535.687 451.071 508.087 476.978C480.491 502.886 442.366 518.908 400.254 518.908C358.14 518.908 320.014 502.886 292.415 476.978C264.819 451.071 247.748 415.281 247.748 375.751C247.748 336.22 264.819 300.428 292.415 274.523C320.014 248.616 358.14 232.593 400.254 232.593C442.366 232.593 480.491 248.616 508.087 274.523C535.687 300.428 552.756 336.22 552.756 375.751V375.751ZM533.259 415.857C526.394 435.931 514.519 453.898 499.01 468.457C498.291 469.132 497.563 469.799 496.83 470.459C492.202 462.48 488.159 453.444 484.819 443.568C492.642 440.814 499.947 437.69 506.634 434.245C517.08 428.861 526.066 422.674 533.259 415.857V415.857ZM496.816 281.033C497.555 281.695 498.288 282.366 499.01 283.044C514.519 297.603 526.394 315.568 533.259 335.644C526.066 328.825 517.08 322.641 506.634 317.256C499.947 313.812 492.644 310.688 484.822 307.934C488.163 298.038 492.202 288.997 496.816 281.033V281.033ZM406.672 244.785L406.672 294.528C430.494 295.051 452.919 298.452 472.676 304.079C476.578 292.603 481.395 282.133 486.964 272.968C464.707 256.404 436.947 246.069 406.672 244.785V244.785ZM313.559 272.956C335.811 256.396 363.566 246.069 393.834 244.785L393.834 294.528C370.008 295.051 347.582 298.452 327.824 304.08C323.92 292.577 319.108 282.104 313.559 272.956ZM267.244 335.644C274.438 328.825 283.422 322.641 293.871 317.256C300.559 313.812 307.863 310.688 315.686 307.932C312.347 298.061 308.303 289.026 303.672 281.044C302.939 281.705 302.214 282.37 301.495 283.044C285.986 297.603 274.111 315.568 267.244 335.644ZM303.682 470.465C302.946 469.803 302.216 469.134 301.495 468.457C285.986 453.898 274.111 435.931 267.244 415.857C274.438 422.674 283.422 428.861 293.871 434.245C300.559 437.692 307.864 440.814 315.687 443.568C312.35 453.453 308.304 462.49 303.682 470.465V470.465ZM393.834 506.716L393.834 456.971C370.008 456.45 347.584 453.049 327.824 447.42C323.923 458.911 319.106 469.381 313.547 478.538C335.802 495.102 363.559 505.431 393.834 506.716ZM486.951 478.542C481.398 469.392 476.583 458.92 472.68 447.42C452.92 453.049 430.495 456.45 406.672 456.971L406.672 506.716C436.94 505.431 464.696 495.102 486.951 478.542Z" fill="#FBCA07"/>
<path fill-rule="evenodd" clip-rule="evenodd" d="M539.375 381.776L474.354 381.776C474.798 399.49 477.202 416.265 481.192 431.456L481.324 431.949C488.179 429.49 494.586 426.727 500.466 423.698C522.155 412.522 536.482 397.851 539.375 381.776ZM319.182 431.951L319.248 431.696C323.278 416.436 325.706 399.58 326.152 381.776L261.13 381.776C264.022 397.851 278.348 412.522 300.039 423.698C305.92 426.727 312.326 429.49 319.182 431.951V431.951ZM393.834 444.914L393.834 381.776L338.996 381.776C338.54 400.52 335.97 418.353 331.688 434.57L331.343 435.856C349.952 441.173 371.183 444.402 393.834 444.914V444.914ZM469.162 435.856C469.023 435.348 468.888 434.84 468.752 434.329C464.511 418.177 461.963 400.424 461.508 381.776L406.672 381.776L406.672 444.914C429.32 444.4 450.552 441.173 469.162 435.856ZM533.259 415.857C526.394 435.931 514.519 453.898 499.01 468.457C498.291 469.132 497.563 469.799 496.83 470.459C492.202 462.48 488.159 453.444 484.819 443.568C492.642 440.814 499.947 437.69 506.634 434.245C517.08 428.861 526.066 422.674 533.259 415.857V415.857ZM303.682 470.465C308.304 462.49 312.35 453.453 315.687 443.567C307.864 440.814 300.559 437.692 293.871 434.245C283.422 428.861 274.438 422.674 267.244 415.856C274.111 435.931 285.986 453.898 301.495 468.457C302.216 469.134 302.946 469.803 303.682 470.465ZM393.834 506.716L393.834 456.971C370.008 456.451 347.584 453.049 327.824 447.42C323.923 458.911 319.106 469.381 313.547 478.538C335.802 495.102 363.559 505.432 393.834 506.716ZM247.748 375.751L552.756 375.751C552.756 415.281 535.687 451.071 508.087 476.978C480.491 502.886 442.366 518.908 400.254 518.908C358.14 518.908 320.014 502.886 292.415 476.978C264.819 451.071 247.748 415.281 247.748 375.751V375.751ZM486.951 478.542C481.398 469.392 476.583 458.92 472.68 447.42C452.92 453.049 430.495 456.451 406.672 456.971L406.672 506.716C436.94 505.432 464.696 495.102 486.951 478.542Z" fill="#D4AD14"/>
<path fill-rule="evenodd" clip-rule="evenodd" d="M193.06 375.751C193.06 367.973 186.342 361.666 178.058 361.666C169.77 361.666 163.052 367.973 163.052 375.751C163.052 383.528 169.77 389.835 178.058 389.835C186.342 389.835 193.06 383.528 193.06 375.751ZM174.376 423.408L154.842 423.408C152.116 423.408 149.888 421.315 149.888 418.757L149.888 332.744C149.888 330.186 152.116 328.093 154.842 328.093L174.376 328.093L174.376 356.791C164.796 358.418 157.531 366.287 157.531 375.751C157.531 385.212 164.796 393.081 174.376 394.709L174.376 423.408ZM206.226 332.744L206.226 418.757C206.226 421.316 203.998 423.408 201.272 423.408L181.736 423.408L181.736 394.709C191.316 393.081 198.582 385.212 198.582 375.751C198.582 366.287 191.316 358.418 181.736 356.791L181.736 328.093L201.272 328.093C203.998 328.093 206.226 330.186 206.226 332.744" fill="#FBCA07"/>
<path fill-rule="evenodd" clip-rule="evenodd" d="M198.582 375.751L206.226 375.751L206.226 418.757C206.226 421.316 203.998 423.408 201.272 423.408L181.736 423.408L181.736 394.709C191.316 393.081 198.582 385.212 198.582 375.751ZM163.052 375.751C163.052 383.528 169.77 389.835 178.058 389.835C186.342 389.835 193.06 383.528 193.06 375.751L163.052 375.751ZM149.888 375.751L157.531 375.751C157.531 385.212 164.796 393.081 174.376 394.709L174.376 423.408L154.842 423.408C152.116 423.408 149.888 421.315 149.888 418.756L149.888 375.751" fill="#D4AD14"/>
<path d="M628.415 257.55L628.415 259.486C628.415 260.923 628.448 262.118 628.516 263.073C628.584 264.027 628.728 264.958 628.951 265.868C629.174 266.777 629.494 267.49 629.911 268.009C630.327 268.528 630.879 268.941 631.567 269.25C632.254 269.559 633.102 269.713 634.108 269.713C635.115 269.713 635.963 269.559 636.651 269.25C637.338 268.941 637.89 268.528 638.307 268.009C638.723 267.49 639.043 266.777 639.266 265.868C639.488 264.958 639.634 264.027 639.702 263.073C639.77 262.118 639.803 260.923 639.803 259.486L639.803 257.55L628.415 257.55ZM646.776 250.242L646.776 257.55C646.776 259.004 646.76 260.186 646.732 261.096C646.703 262.005 646.606 263.222 646.442 264.749C646.278 266.278 646.04 267.537 645.73 268.528C645.42 269.518 644.955 270.613 644.336 271.813C643.716 273.014 642.97 273.969 642.098 274.677C641.226 275.385 640.108 275.981 638.743 276.463C637.376 276.945 635.832 277.185 634.108 277.185C632.384 277.185 630.844 276.945 629.49 276.463C628.134 275.981 627.019 275.385 626.148 274.677C625.276 273.969 624.526 273.017 623.896 271.827C623.267 270.637 622.798 269.537 622.488 268.528C622.178 267.518 621.94 266.255 621.776 264.737C621.611 263.219 621.514 262 621.486 261.082C621.456 260.163 621.442 258.986 621.442 257.55L604.475 257.55L604.475 250.242L646.776 250.242" fill="#FBCA07"/>
<path d="M637.131 295.029L622.516 290.283L622.516 299.746L637.131 295.029ZM646.776 299.228L604.475 313.492L604.475 305.009L615.574 301.301L615.574 288.674L604.475 284.965L604.475 276.484L646.776 290.746L646.776 299.228" fill="#FBCA07"/>
<path d="M616.212 316.963L617.462 324.272C615.504 324.726 613.883 325.562 612.595 326.781C611.307 327.999 610.663 329.609 610.663 331.609C610.663 333.626 611.176 335.186 612.203 336.286C613.228 337.386 614.566 337.936 616.212 337.936C617.103 337.936 617.911 337.763 618.638 337.418C619.364 337.072 619.964 336.64 620.439 336.122C620.914 335.604 621.388 334.913 621.863 334.049C622.336 333.186 622.73 332.367 623.039 331.595C623.35 330.823 623.747 329.863 624.231 328.717C624.715 327.572 625.16 326.59 625.567 325.772C626.128 324.681 626.667 323.762 627.179 323.018C627.692 322.272 628.362 321.513 629.184 320.74C630.007 319.967 631 319.38 632.162 318.981C633.324 318.581 634.651 318.382 636.142 318.382C638.04 318.382 639.75 318.75 641.271 319.485C642.791 320.221 644.02 321.218 644.96 322.472C645.899 323.726 646.611 325.13 647.095 326.685C647.58 328.241 647.822 329.881 647.822 331.609C647.822 334.663 646.979 337.359 645.294 339.694C643.61 342.031 641.488 343.599 638.931 344.399L637.45 336.953C639.696 336.063 640.82 334.281 640.82 331.609C640.82 329.917 640.456 328.535 639.73 327.462C639.003 326.389 637.808 325.854 636.142 325.854C635.367 325.854 634.651 326.099 633.992 326.59C633.334 327.08 632.748 327.776 632.235 328.676C631.722 329.576 631.276 330.457 630.898 331.322C630.52 332.186 630.104 333.186 629.648 334.322C629.194 335.459 628.822 336.317 628.531 336.899C628.007 337.936 627.495 338.844 626.991 339.627C626.487 340.408 625.872 341.18 625.146 341.945C624.419 342.708 623.644 343.331 622.822 343.812C621.999 344.294 621.026 344.681 619.902 344.972C618.779 345.263 617.548 345.408 616.212 345.408C612.396 345.408 609.346 344.09 607.06 341.454C604.775 338.817 603.632 335.536 603.632 331.609C603.632 327.809 604.79 324.55 607.104 321.831C609.419 319.112 612.455 317.49 616.212 316.963" fill="#FBCA07"/>
<path d="M616.212 349.751L617.462 357.059C615.504 357.515 613.883 358.351 612.595 359.569C611.307 360.787 610.663 362.396 610.663 364.396C610.663 366.415 611.176 367.973 612.203 369.073C613.228 370.174 614.566 370.723 616.212 370.723C617.103 370.723 617.911 370.55 618.638 370.205C619.364 369.86 619.964 369.428 620.439 368.91C620.914 368.391 621.388 367.7 621.863 366.837C622.336 365.973 622.73 365.155 623.039 364.382C623.35 363.61 623.747 362.65 624.231 361.505C624.715 360.36 625.16 359.377 625.567 358.56C626.128 357.469 626.667 356.551 627.179 355.805C627.692 355.059 628.362 354.301 629.184 353.528C630.007 352.755 631 352.169 632.162 351.769C633.324 351.369 634.651 351.169 636.142 351.169C638.04 351.169 639.75 351.537 641.271 352.273C642.791 353.01 644.02 354.005 644.96 355.259C645.899 356.514 646.611 357.918 647.095 359.474C647.58 361.028 647.822 362.669 647.822 364.396C647.822 367.451 646.979 370.146 645.294 372.483C643.61 374.818 641.488 376.387 638.931 377.186L637.45 369.742C639.696 368.851 640.82 367.068 640.82 364.396C640.82 362.705 640.456 361.324 639.73 360.251C639.003 359.178 637.808 358.643 636.142 358.643C635.367 358.643 634.651 358.887 633.992 359.377C633.334 359.869 632.748 360.564 632.235 361.464C631.722 362.364 631.276 363.246 630.898 364.11C630.52 364.973 630.104 365.973 629.648 367.11C629.194 368.246 628.822 369.105 628.531 369.687C628.007 370.723 627.495 371.632 626.991 372.414C626.487 373.195 625.872 373.969 625.146 374.732C624.419 375.496 623.644 376.119 622.822 376.601C621.999 377.081 621.026 377.469 619.902 377.76C618.779 378.05 617.548 378.196 616.212 378.196C612.396 378.196 609.346 376.877 607.06 374.241C604.775 371.604 603.632 368.324 603.632 364.396C603.632 360.596 604.79 357.337 607.104 354.619C609.419 351.9 612.455 350.278 616.212 349.751" fill="#FBCA07"/>
<path d="M628.415 390.719L628.415 392.657C628.415 394.093 628.448 395.289 628.516 396.244C628.584 397.197 628.728 398.129 628.951 399.039C629.174 399.947 629.494 400.661 629.911 401.179C630.327 401.697 630.879 402.11 631.567 402.419C632.254 402.728 633.102 402.884 634.108 402.884C635.115 402.884 635.963 402.728 636.651 402.419C637.338 402.11 637.89 401.697 638.307 401.179C638.723 400.661 639.043 399.947 639.266 399.039C639.488 398.129 639.634 397.197 639.702 396.244C639.77 395.289 639.803 394.093 639.803 392.657L639.803 390.719L628.415 390.719ZM646.776 383.412L646.776 390.719C646.776 392.175 646.76 393.356 646.732 394.265C646.703 395.175 646.606 396.393 646.442 397.92C646.278 399.447 646.04 400.706 645.73 401.697C645.42 402.688 644.955 403.783 644.336 404.984C643.716 406.184 642.97 407.139 642.098 407.847C641.226 408.556 640.108 409.152 638.743 409.634C637.376 410.115 635.832 410.356 634.108 410.356C632.384 410.356 630.844 410.115 629.49 409.634C628.134 409.152 627.019 408.556 626.148 407.847C625.276 407.139 624.526 406.188 623.896 404.998C623.267 403.807 622.798 402.707 622.488 401.697C622.178 400.687 621.94 399.425 621.776 397.907C621.611 396.389 621.514 395.17 621.486 394.252C621.456 393.334 621.442 392.156 621.442 390.719L604.475 390.719L604.475 383.412L646.776 383.412Z" fill="#FBCA07"/>
<path d="M625.567 441.398C627.484 441.398 629.291 441.248 630.986 440.948C632.68 440.649 634.274 440.167 635.764 439.503C637.255 438.84 638.442 437.894 639.323 436.666C640.204 435.439 640.646 433.999 640.646 432.344C640.646 430.999 640.35 429.798 639.759 428.743C639.168 427.689 638.39 426.826 637.42 426.154C636.452 425.48 635.3 424.927 633.963 424.49C632.627 424.053 631.271 423.744 629.896 423.563C628.522 423.38 627.078 423.29 625.567 423.29C624.076 423.29 622.647 423.38 621.282 423.563C619.916 423.744 618.575 424.053 617.258 424.49C615.942 424.927 614.799 425.48 613.83 426.154C612.862 426.826 612.082 427.693 611.491 428.757C610.9 429.821 610.606 431.017 610.606 432.344C610.606 433.69 610.9 434.894 611.491 435.958C612.082 437.021 612.862 437.885 613.83 438.548C614.799 439.213 615.942 439.762 617.258 440.199C618.575 440.635 619.916 440.943 621.282 441.126C622.647 441.307 624.076 441.398 625.567 441.398V441.398ZM625.567 415.572C627.64 415.572 629.678 415.758 631.683 416.131C633.687 416.504 635.663 417.117 637.61 417.972C639.556 418.827 641.26 419.88 642.723 421.135C644.186 422.389 645.366 423.981 646.267 425.908C647.168 427.836 647.618 429.981 647.618 432.344C647.618 434.707 647.168 436.852 646.267 438.78C645.366 440.707 644.186 442.298 642.723 443.552C641.26 444.807 639.556 445.862 637.61 446.717C635.663 447.57 633.687 448.181 631.683 448.544C629.678 448.908 627.64 449.09 625.567 449.09C623.514 449.09 621.495 448.908 619.51 448.544C617.524 448.181 615.563 447.57 613.626 446.717C611.69 445.862 609.99 444.807 608.528 443.552C607.066 442.298 605.884 440.707 604.983 438.78C604.083 436.852 603.632 434.707 603.632 432.344C603.632 429.981 604.083 427.836 604.983 425.908C605.884 423.981 607.066 422.389 608.528 421.135C609.99 419.88 611.69 418.827 613.626 417.972C615.563 417.117 617.53 416.504 619.524 416.131C621.519 415.758 623.534 415.572 625.567 415.572" fill="#FBCA07"/>
<path d="M628.415 461.724L628.415 463.661C628.415 465.097 628.448 466.292 628.516 467.247C628.584 468.202 628.728 469.133 628.951 470.042C629.174 470.951 629.49 471.664 629.896 472.182C630.303 472.7 630.855 473.115 631.552 473.424C632.25 473.733 633.091 473.888 634.08 473.888C635.067 473.888 635.91 473.733 636.607 473.424C637.304 473.115 637.862 472.7 638.278 472.182C638.695 471.664 639.019 470.951 639.251 470.042C639.483 469.133 639.634 468.202 639.702 467.247C639.77 466.292 639.803 465.097 639.803 463.661L639.803 461.724L628.415 461.724ZM604.446 474.515L621.384 465.815C621.344 465.342 621.326 464.806 621.326 464.206C621.326 463.897 621.331 463.452 621.34 462.87C621.35 462.288 621.355 461.905 621.355 461.724L604.446 461.724L604.446 454.415L646.747 454.415L646.747 461.724C646.747 463.159 646.731 464.338 646.703 465.256C646.674 466.174 646.578 467.392 646.412 468.91C646.248 470.429 646.011 471.692 645.7 472.7C645.391 473.71 644.92 474.811 644.291 476.001C643.662 477.191 642.911 478.142 642.04 478.852C641.168 479.561 640.055 480.156 638.699 480.637C637.343 481.119 635.804 481.359 634.08 481.359C631.136 481.359 628.691 480.664 626.744 479.273C624.798 477.882 623.436 475.806 622.662 473.042L604.446 482.861L604.446 474.515" fill="#FBCA07"/>
<path d="M646.776 486.794L646.776 519.576L639.803 519.576L639.803 507.112L604.475 507.112L604.475 499.803L639.803 499.803L639.803 486.794L646.776 486.794" fill="#FBCA07"/>
</svg>
