<svg fill="none" xmlns="http://www.w3.org/2000/svg" viewBox="0 0 751 800"><path fill-rule="evenodd" clip-rule="evenodd" d="M159.582 125H583.17c21.042 0 38.26 17.202 38.26 38.227v533.548c0 21.024-17.218 38.225-38.26 38.225H159.582V125Z" fill="#E8E8E7"/><path fill-rule="evenodd" clip-rule="evenodd" d="M159.672 99.433h395.452c19.645 0 35.72 17.123 35.72 38.05v524.546c0 20.926-16.075 38.05-35.72 38.05H159.672V99.433Z" fill="#5F1316"/><path fill-rule="evenodd" clip-rule="evenodd" d="M375.252 99.433h179.865c19.646 0 35.72 17.123 35.72 38.05v524.546c0 20.926-16.074 38.05-35.72 38.05H375.252V99.433Z" fill="#3B1516"/><path fill-rule="evenodd" clip-rule="evenodd" d="M381.278 260.633v65.022c17.714-.444 34.488-2.848 49.679-6.839l.493-.132c-2.458-6.855-5.221-13.261-8.25-19.141-11.176-21.69-25.848-36.016-41.922-38.91Zm-62.221 58.046c15.331 4.07 32.277 6.525 50.169 6.976v-65.022c-16.073 2.894-30.747 17.22-41.923 38.91-3.027 5.88-5.79 12.284-8.246 19.136Zm-12.968 74.657h63.137V338.5c-18.9-.459-36.865-3.064-53.174-7.404l-.906-.243c-5.318 18.61-8.545 39.836-9.057 62.483Zm9.058 75.329 1.033-.278c16.28-4.323 34.203-6.916 53.046-7.375v-54.837h-63.137c.515 22.65 3.739 43.881 9.058 62.49Zm54.079 70.214c-16.073-2.892-30.747-17.22-41.923-38.91-3.029-5.881-5.793-12.286-8.251-19.142 15.328-4.068 32.273-6.519 50.174-6.971v65.023Zm62.227-58.052-.255-.067c-15.26-4.029-32.116-6.457-49.92-6.904v65.023c16.074-2.892 30.746-17.219 41.922-38.91 3.029-5.881 5.792-12.286 8.253-19.142Zm12.963-74.652h-63.138v54.837c18.744.456 36.577 3.027 52.793 7.308l1.287.345c5.317-18.609 8.546-39.84 9.058-62.49Zm-9.058-75.328c-.508.138-1.016.273-1.527.409-16.152 4.241-33.905 6.789-52.553 7.244v54.836h63.138c-.514-22.648-3.741-43.88-9.058-62.489Zm-60.105-83.595c39.53 0 75.32 17.069 101.227 44.669 25.907 27.596 41.929 65.722 41.929 107.834 0 42.113-16.022 80.24-41.929 107.838-25.907 27.596-61.697 44.667-101.227 44.667-39.532 0-75.323-17.071-101.228-44.667-25.907-27.598-41.931-65.725-41.931-107.838 0-42.112 16.024-80.238 41.931-107.834 25.905-27.6 61.696-44.669 101.228-44.669Zm40.105 19.497c20.075 6.866 38.042 18.74 52.601 34.25.675.718 1.342 1.446 2.001 2.18-7.979 4.628-17.014 8.67-26.891 12.01-2.753-7.822-5.877-15.128-9.322-21.814-5.384-10.447-11.571-19.432-18.389-26.626Zm-134.823 36.443c.662-.739 1.333-1.472 2.011-2.193 14.559-15.51 32.524-27.384 52.6-34.25-6.819 7.194-13.004 16.179-18.388 26.626-3.444 6.686-6.569 13.989-9.322 21.812-9.897-3.342-18.937-7.38-26.901-11.995Zm-36.248 90.144h49.743c.523-23.821 3.924-46.247 9.551-66.004-11.476-3.901-21.946-8.719-31.112-14.288-16.564 22.257-26.898 50.017-28.182 80.292Zm28.171 93.113c-16.56-22.252-26.887-50.006-28.171-80.274h49.743c.523 23.825 3.924 46.252 9.552 66.009-11.504 3.904-21.976 8.716-31.124 14.265Zm62.688 46.315c-6.819-7.193-13.004-16.177-18.388-26.627-3.444-6.688-6.569-13.992-9.325-21.814-9.87 3.338-18.905 7.382-26.887 12.013.661.733 1.326 1.459 2 2.177 14.559 15.51 32.524 27.384 52.6 34.251Zm134.821-36.437c-.663.736-1.331 1.465-2.008 2.186-14.559 15.51-32.526 27.384-52.601 34.251 6.818-7.193 13.005-16.177 18.389-26.627 3.447-6.688 6.569-13.993 9.322-21.816 9.886 3.338 18.922 7.383 26.898 12.006Zm36.25-90.152h-49.744c-.521 23.825-3.923 46.249-9.551 66.009 11.491 3.901 21.961 8.719 31.118 14.277 16.564-22.254 26.893-50.012 28.177-80.286Zm-28.174-93.118c-9.149 5.554-19.621 10.368-31.121 14.271 5.628 19.76 9.03 42.185 9.551 66.008h49.744c-1.284-30.268-11.614-58.024-28.174-80.279Z" fill="#FBCA07"/><path fill-rule="evenodd" clip-rule="evenodd" d="M381.278 260.633v65.022c17.714-.444 34.488-2.848 49.679-6.839l.493-.132c-2.458-6.855-5.221-13.261-8.25-19.141-11.176-21.69-25.848-36.016-41.922-38.91Zm50.175 220.194-.255-.067c-15.26-4.029-32.116-6.457-49.92-6.904v65.023c16.074-2.892 30.746-17.219 41.922-38.91 3.029-5.881 5.792-12.286 8.253-19.142Zm12.963-74.652h-63.138v54.837c18.744.456 36.577 3.027 52.793 7.308l1.287.345c5.317-18.609 8.546-39.84 9.058-62.49Zm-9.058-75.328c-.508.138-1.016.273-1.527.409-16.152 4.241-33.905 6.789-52.553 7.244v54.836h63.138c-.514-22.648-3.741-43.88-9.058-62.489Zm-20-64.098c20.075 6.866 38.042 18.74 52.601 34.25.675.718 1.342 1.446 2.001 2.18-7.979 4.628-17.014 8.67-26.891 12.01-2.753-7.822-5.877-15.128-9.322-21.814-5.384-10.447-11.571-19.432-18.389-26.626Zm54.609 229.578c-7.976-4.623-17.012-8.668-26.898-12.006-2.753 7.823-5.875 15.128-9.322 21.816-5.384 10.45-11.571 19.434-18.389 26.627 20.075-6.867 38.042-18.741 52.601-34.251.677-.721 1.346-1.45 2.008-2.186Zm36.251-90.152h-49.745c-.521 23.825-3.923 46.249-9.551 66.009 11.491 3.901 21.961 8.719 31.118 14.277 16.564-22.254 26.893-50.012 28.178-80.286ZM375.252 552.26V247.252c39.53 0 75.321 17.069 101.228 44.669 25.908 27.596 41.93 65.722 41.93 107.834 0 42.113-16.022 80.24-41.93 107.838-25.907 27.596-61.698 44.667-101.228 44.667Zm102.791-239.203c-9.149 5.554-19.621 10.368-31.121 14.271 5.628 19.76 9.03 42.185 9.551 66.008h49.745c-1.285-30.268-11.614-58.024-28.175-80.279Z" fill="#D4AD14"/><path fill-rule="evenodd" clip-rule="evenodd" d="M375.253 606.948c-7.778 0-14.085 6.719-14.085 15.003 0 8.288 6.307 15.005 14.085 15.005 7.777 0 14.084-6.717 14.084-15.005 0-8.284-6.307-15.003-14.084-15.003Zm47.656 18.684v19.535c0 2.725-2.092 4.953-4.651 4.953h-86.012c-2.559 0-4.651-2.228-4.651-4.953v-19.535h28.698c1.627 9.58 9.496 16.845 18.96 16.845 9.461 0 17.33-7.265 18.958-16.845h28.698Zm-90.663-31.849h86.012c2.56 0 4.651 2.228 4.651 4.953v19.536h-28.698c-1.628-9.58-9.497-16.845-18.958-16.845-9.464 0-17.333 7.265-18.96 16.845h-28.698v-19.536c0-2.725 2.092-4.953 4.651-4.953" fill="#FBCA07"/><path fill-rule="evenodd" clip-rule="evenodd" d="M375.252 601.427v-7.644h43.006c2.56 0 4.651 2.228 4.651 4.953v19.536h-28.698c-1.629-9.58-9.498-16.845-18.959-16.845Zm0 35.529c7.778 0 14.085-6.717 14.085-15.005 0-8.284-6.307-15.003-14.085-15.003v30.008Zm0 13.164v-7.643c9.461 0 17.33-7.265 18.959-16.845h28.698v19.535c0 2.725-2.092 4.953-4.651 4.953h-43.006" fill="#D4AD14"/><path d="M257.052 171.593h1.936c1.437 0 2.632-.033 3.587-.101a16.707 16.707 0 0 0 2.795-.435c.909-.222 1.622-.542 2.14-.96.52-.416.933-.968 1.242-1.656.309-.686.463-1.534.463-2.541s-.154-1.855-.463-2.543c-.309-.686-.722-1.238-1.242-1.656-.518-.416-1.231-.736-2.14-.958a16.708 16.708 0 0 0-2.795-.436 52.042 52.042 0 0 0-3.587-.102h-1.936v11.388Zm-7.308-18.361h7.308c1.454 0 2.636.016 3.546.044.908.029 2.126.127 3.653.291 1.528.164 2.787.401 3.779.712.99.309 2.085.774 3.285 1.393 1.2.62 2.155 1.367 2.864 2.239.708.872 1.304 1.989 1.786 3.354.482 1.367.722 2.911.722 4.635 0 1.724-.24 3.264-.722 4.619-.482 1.356-1.078 2.47-1.786 3.341-.709.872-1.66 1.623-2.85 2.252-1.19.629-2.291 1.099-3.299 1.408-1.01.311-2.273.548-3.792.712-1.518.165-2.737.263-3.654.291-.919.029-2.097.044-3.532.044v16.966h-7.308v-42.301M294.531 162.877l-4.746 14.615h9.463l-4.717-14.615Zm4.199-9.645 14.263 42.301h-8.482l-3.708-11.098h-12.627l-3.71 11.098h-8.481l14.263-42.301h8.482M316.465 183.796l7.308-1.249c.455 1.957 1.291 3.578 2.51 4.866 1.218 1.288 2.827 1.932 4.827 1.932 2.018 0 3.578-.513 4.678-1.54 1.1-1.025 1.649-2.362 1.649-4.009 0-.891-.172-1.699-.518-2.425-.345-.727-.777-1.327-1.295-1.802-.518-.474-1.209-.949-2.073-1.424a22.997 22.997 0 0 0-2.454-1.176c-.773-.31-1.733-.708-2.878-1.192a53.015 53.015 0 0 1-2.945-1.336c-1.091-.561-2.01-1.1-2.755-1.612-.746-.513-1.504-1.182-2.278-2.005-.772-.823-1.359-1.816-1.758-2.977-.401-1.163-.6-2.49-.6-3.98 0-1.899.368-3.608 1.104-5.13.736-1.52 1.732-2.749 2.987-3.689a13.822 13.822 0 0 1 4.213-2.135 16.44 16.44 0 0 1 4.923-.726c3.054 0 5.75.842 8.086 2.528 2.337 1.684 3.905 3.805 4.705 6.362l-7.446 1.482c-.89-2.247-2.672-3.371-5.345-3.371-1.692 0-3.074.364-4.146 1.091-1.073.726-1.609 1.921-1.609 3.588 0 .774.246 1.49.736 2.149.491.659 1.187 1.244 2.087 1.757a28 28 0 0 0 2.646 1.338c.863.377 1.863.793 3 1.249 1.136.455 1.995.827 2.577 1.117a30.344 30.344 0 0 1 2.727 1.54 15.837 15.837 0 0 1 2.318 1.846 10.579 10.579 0 0 1 1.868 2.324c.482.822.868 1.796 1.16 2.92.29 1.122.436 2.353.436 3.689 0 3.816-1.318 6.867-3.954 9.152-2.637 2.285-5.918 3.428-9.846 3.428-3.8 0-7.059-1.157-9.777-3.472-2.719-2.315-4.341-5.351-4.868-9.108M349.253 183.796l7.308-1.249c.456 1.957 1.292 3.578 2.509 4.866 1.218 1.288 2.828 1.932 4.828 1.932 2.019 0 3.577-.513 4.677-1.54 1.1-1.025 1.65-2.362 1.65-4.009 0-.891-.173-1.699-.518-2.425-.346-.727-.778-1.327-1.296-1.802-.518-.474-1.209-.949-2.072-1.424a23.007 23.007 0 0 0-2.455-1.176c-.772-.31-1.732-.708-2.877-1.192a52.68 52.68 0 0 1-2.945-1.336c-1.092-.561-2.009-1.1-2.755-1.612-.746-.513-1.505-1.182-2.277-2.005-.773-.823-1.359-1.816-1.76-2.977-.399-1.163-.599-2.49-.599-3.98 0-1.899.368-3.608 1.104-5.13.737-1.52 1.732-2.749 2.986-3.689a13.827 13.827 0 0 1 4.214-2.135 16.44 16.44 0 0 1 4.923-.726c3.055 0 5.75.842 8.087 2.528 2.335 1.684 3.903 3.805 4.703 6.362l-7.444 1.482c-.892-2.247-2.674-3.371-5.346-3.371-1.691 0-3.073.364-4.145 1.091-1.073.726-1.609 1.921-1.609 3.588 0 .774.244 1.49.735 2.149.492.659 1.186 1.244 2.086 1.757.9.514 1.783.959 2.646 1.338.864.377 1.864.793 3 1.249 1.137.455 1.995.827 2.577 1.117a30.371 30.371 0 0 1 2.728 1.54 15.837 15.837 0 0 1 2.318 1.846 10.638 10.638 0 0 1 1.868 2.324c.481.822.869 1.796 1.159 2.92.291 1.122.437 2.353.437 3.689 0 3.816-1.319 6.867-3.955 9.152-2.637 2.285-5.918 3.428-9.845 3.428-3.8 0-7.059-1.157-9.778-3.472-2.718-2.315-4.34-5.351-4.867-9.108M390.221 171.593h1.937c1.437 0 2.632-.033 3.587-.101a16.707 16.707 0 0 0 2.795-.435c.909-.222 1.622-.542 2.14-.96.519-.416.932-.968 1.241-1.656.309-.686.464-1.534.464-2.541s-.155-1.855-.464-2.543c-.309-.686-.722-1.238-1.241-1.656-.518-.416-1.231-.736-2.14-.958a16.708 16.708 0 0 0-2.795-.436 52.042 52.042 0 0 0-3.587-.102h-1.937v11.388Zm-7.307-18.361h7.307c1.455 0 2.637.016 3.546.044.909.029 2.127.127 3.654.291 1.527.164 2.786.401 3.778.712.991.309 2.086.774 3.286 1.393 1.201.62 2.156 1.367 2.864 2.239.709.872 1.304 1.989 1.786 3.354.482 1.367.722 2.911.722 4.635 0 1.724-.24 3.264-.722 4.619-.482 1.356-1.077 2.47-1.786 3.341-.708.872-1.66 1.623-2.85 2.252-1.19.629-2.29 1.099-3.3 1.408-1.01.311-2.272.548-3.79.712-1.518.165-2.738.263-3.655.291-.919.029-2.096.044-3.533.044v16.966h-7.307v-42.301ZM440.9 174.441c0-1.917-.15-3.724-.451-5.418a20.463 20.463 0 0 0-1.444-4.779c-.663-1.491-1.609-2.677-2.837-3.559-1.227-.881-2.668-1.322-4.322-1.322-1.346 0-2.546.296-3.601.886a7.666 7.666 0 0 0-2.59 2.339c-.673.968-1.226 2.12-1.663 3.457a22.593 22.593 0 0 0-.928 4.067 33.005 33.005 0 0 0-.273 4.329c0 1.491.091 2.92.273 4.286.182 1.365.491 2.706.928 4.024.437 1.316.99 2.458 1.663 3.428a7.617 7.617 0 0 0 2.604 2.338c1.063.591 2.26.886 3.587.886 1.345 0 2.549-.295 3.613-.886a7.494 7.494 0 0 0 2.591-2.338c.665-.97 1.214-2.112 1.651-3.428.436-1.318.743-2.659.926-4.024.182-1.366.273-2.795.273-4.286Zm-25.826 0c0-2.073.185-4.11.558-6.116.373-2.004.986-3.98 1.841-5.926.855-1.947 1.909-3.651 3.163-5.114 1.254-1.462 2.846-2.642 4.774-3.544 1.927-.901 4.073-1.35 6.436-1.35 2.363 0 4.508.449 6.436 1.35 1.927.902 3.518 2.082 4.772 3.544 1.254 1.463 2.309 3.167 3.164 5.114a26.45 26.45 0 0 1 1.828 5.926c.364 2.006.545 4.043.545 6.116 0 2.054-.181 4.072-.545 6.058a26.295 26.295 0 0 1-1.828 5.884c-.855 1.936-1.91 3.636-3.164 5.097-1.254 1.463-2.845 2.644-4.772 3.545-1.928.9-4.073 1.351-6.436 1.351-2.363 0-4.509-.451-6.436-1.351-1.928-.901-3.52-2.082-4.774-3.545-1.254-1.461-2.308-3.161-3.163-5.097a26.767 26.767 0 0 1-1.841-5.899 32.807 32.807 0 0 1-.558-6.043M461.225 171.593h1.938c1.435 0 2.631-.033 3.586-.101a16.675 16.675 0 0 0 2.795-.435c.908-.222 1.622-.538 2.14-.945.518-.407.932-.959 1.241-1.656.31-.697.465-1.539.465-2.528 0-.987-.155-1.829-.465-2.527-.309-.697-.723-1.254-1.241-1.67-.518-.418-1.232-.742-2.14-.974a15.818 15.818 0 0 0-2.795-.45 52.05 52.05 0 0 0-3.586-.102h-1.938v11.388Zm12.792 23.97-8.7-16.939c-.473.04-1.009.059-1.61.059a97.8 97.8 0 0 1-1.335-.015c-.582-.009-.965-.015-1.147-.015v16.91h-7.308v-42.302h7.308c1.436 0 2.615.016 3.532.044.919.03 2.137.126 3.655.291 1.518.164 2.781.401 3.79.712 1.01.309 2.11.78 3.301 1.409 1.19.63 2.141 1.38 2.851 2.251.708.872 1.304 1.985 1.785 3.341.481 1.356.722 2.895.722 4.619 0 2.944-.695 5.389-2.087 7.336-1.39 1.947-3.467 3.308-6.23 4.083l9.819 18.216h-8.346M486.295 153.232h32.783v6.973h-12.464v35.328h-7.309v-35.328h-13.01v-6.973" fill="#FBCA07"/></svg>