<svg width="440" height="170" xmlns="http://www.w3.org/2000/svg"><rect fill="#EA4C89" stroke="#000" x="4.286" y="7.012" width="430" height="159" rx="18"/><path vector-effect="non-scaling-stroke" d="M270.843 111.802h-6.103V75.453h4.882l.882 5.357h.339a10.486 10.486 0 0 1 1.7-2.424 9.398 9.398 0 0 1 1.114-1 11.43 11.43 0 0 1 3.122-1.676 13.549 13.549 0 0 1 .913-.29q2.306-.645 5.018-.645a15.928 15.928 0 0 1 3.82.435 11.288 11.288 0 0 1 5.03 2.65q3.357 3.086 3.357 9.664v24.278h-6.103V88.609q0-4.611-1.865-6.747a5.665 5.665 0 0 0-2.385-1.586q-.941-.341-2.108-.471a13.67 13.67 0 0 0-1.509-.08 13.724 13.724 0 0 0-2.868.28q-3.331.712-4.964 3.247-1.679 2.605-2.117 6.761a29.968 29.968 0 0 0-.155 3.14v18.649h0zm-169.197-12.14V75.454h6.103v23.26a16.773 16.773 0 0 0 .167 2.45q.381 2.572 1.63 4.128 1.797 2.238 6.205 2.238a14.668 14.668 0 0 0 2.317-.172q2.193-.35 3.65-1.421a8.053 8.053 0 0 0 2.493-3.05 10.754 10.754 0 0 0 .593-1.528 19.169 19.169 0 0 0 .625-2.845q.209-1.421.268-3.043a36.035 36.035 0 0 0 .023-1.3V75.453h6.103v36.349h-4.882l-.882-4.883h-.34q-1.288 2.034-2.983 3.255-1.695 1.22-3.798 1.763a16.739 16.739 0 0 1-2.514.438 21.72 21.72 0 0 1-2.165.105q-6.442 0-9.528-3.221a10.144 10.144 0 0 1-2.266-3.86q-.525-1.568-.715-3.481a22.958 22.958 0 0 1-.104-2.255h0zm49.3 1.086V80.539h-9.9v-4.204l9.9-1.085 1.222-9.494h4.882v9.697h14.173v5.086H157.05v19.056a15.532 15.532 0 0 0 .105 1.865q.113.935.35 1.72a7.544 7.544 0 0 0 .325.89q.78 1.764 2.543 2.612a7.74 7.74 0 0 0 1.67.565q1.266.282 2.874.282a20.91 20.91 0 0 0 2.068-.107 26.473 26.473 0 0 0 1.73-.232q2.034-.339 3.526-.678v4.883q-1.628.407-3.595.746a23.744 23.744 0 0 1-3.314.328 27.047 27.047 0 0 1-.822.01q-3.866 0-6.917-1.016-3.052-1.018-4.849-3.595-1.797-2.577-1.797-7.12h0zm40.69 0V80.539h-9.901v-4.204l9.9-1.085 1.221-9.494h4.883v9.697h14.173v5.086H197.74v19.056a15.532 15.532 0 0 0 .104 1.865q.113.935.35 1.72a7.544 7.544 0 0 0 .326.89q.78 1.764 2.543 2.612a7.74 7.74 0 0 0 1.67.565q1.266.282 2.873.282a20.91 20.91 0 0 0 2.069-.107 26.473 26.473 0 0 0 1.729-.232q2.034-.339 3.526-.678v4.883q-1.627.407-3.594.746a23.744 23.744 0 0 1-3.314.328 27.047 27.047 0 0 1-.823.01q-3.865 0-6.917-1.016-3.051-1.018-4.848-3.595-1.797-2.577-1.797-7.12h0zM67.128 107.19h-.407l-.542 4.612h-4.883v-51.54h5.9v12.479q0 1.898-.034 3.73-.034 1.83-.237 3.73h.271a11.014 11.014 0 0 1 2.01-2.27 15.043 15.043 0 0 1 2.127-1.528q2.712-1.628 6.849-1.628a15.552 15.552 0 0 1 3.947.486 13.64 13.64 0 0 1 2.02.7q2.713 1.187 4.646 3.561a14.998 14.998 0 0 1 1.941 3.13 20.008 20.008 0 0 1 1.043 2.77q.986 3.306 1.048 7.567a39.575 39.575 0 0 1 .003.57 35.425 35.425 0 0 1-.2 3.874q-.224 2.018-.69 3.767a20.796 20.796 0 0 1-.161.565q-1.051 3.526-3.018 5.934a12.718 12.718 0 0 1-3.506 3.018 12.068 12.068 0 0 1-1.14.576 13.953 13.953 0 0 1-4.486 1.125 16.855 16.855 0 0 1-1.447.062 16.696 16.696 0 0 1-3.043-.263q-2.074-.384-3.704-1.33a16.513 16.513 0 0 1-2.315-1.606 12.243 12.243 0 0 1-1.992-2.09h0zM21.286 89.898l28.482 14.037v-5.29L27.66 88 49.768 75.86v-5.29L21.286 86.507v3.39h0zm394.68 0-28.482 14.037v-5.29L409.59 88 387.484 75.86v-5.29l28.482 15.937v3.39h0zm-61.304 21.904h-5.833l18.582-48.42h5.832l-18.581 48.42zm-120.597.042a19.03 19.03 0 0 0 4.973.636q3.594 0 6.612-1.153 3.018-1.153 5.222-3.492a14.713 14.713 0 0 0 1.912-2.546 18.57 18.57 0 0 0 1.546-3.32q.706-1.984 1.014-4.355a30.375 30.375 0 0 0 .24-3.919 34.407 34.407 0 0 0-.064-2.136q-.311-5.018-2.14-8.477a17.807 17.807 0 0 0-.593-1.04 14.394 14.394 0 0 0-5.408-5.199 16.44 16.44 0 0 0-3.24-1.339 18.74 18.74 0 0 0-5.305-.729 20.375 20.375 0 0 0-2.028.099 16.538 16.538 0 0 0-6.448 1.97 13.69 13.69 0 0 0-2.981 2.229 15.527 15.527 0 0 0-2.885 3.975q-1.334 2.586-1.837 6.019a30.706 30.706 0 0 0-.3 4.425q0 2.427.32 4.535a20.977 20.977 0 0 0 .935 3.84 19.16 19.16 0 0 0 .896 2.133 15.196 15.196 0 0 0 2.63 3.8q2.272 2.374 5.324 3.527a17.225 17.225 0 0 0 1.605.517h0zm4.905-4.315a12.096 12.096 0 0 0 2.569-.26 8.468 8.468 0 0 0 3.263-1.435 9.375 9.375 0 0 0 2.62-3.01 12.506 12.506 0 0 0 .839-1.839q1.082-2.955 1.147-6.897a30.892 30.892 0 0 0 .005-.528 27.389 27.389 0 0 0-.189-3.32q-.28-2.275-.963-4.106a11.291 11.291 0 0 0-1.343-2.58 9.014 9.014 0 0 0-2.15-2.167 8.745 8.745 0 0 0-3.292-1.407 12.407 12.407 0 0 0-2.574-.255 11.983 11.983 0 0 0-3.181.399A8.299 8.299 0 0 0 231 83.42q-2.073 2.939-2.5 7.612a27.883 27.883 0 0 0-.11 2.527q0 3.972 1.026 6.976a15.394 15.394 0 0 0 .16.45q1.187 3.153 3.527 4.848 2.34 1.695 5.866 1.695h0zm-161.94 0a10.718 10.718 0 0 0 2.898-.37 7.383 7.383 0 0 0 4.357-3.224 12.421 12.421 0 0 0 1.405-3.145q.472-1.565.698-3.472a32.215 32.215 0 0 0 .203-3.758 30.8 30.8 0 0 0-.223-3.852q-.498-3.916-2.083-6.388a7.547 7.547 0 0 0-5.397-3.448 11.947 11.947 0 0 0-1.927-.147 9.805 9.805 0 0 0-3.21.5 8.098 8.098 0 0 0-4.012 3.06 12.074 12.074 0 0 0-1.681 3.504q-.497 1.622-.71 3.586a28.702 28.702 0 0 0-.152 3.049 31.325 31.325 0 0 0 .223 3.874q.24 1.913.735 3.484a12.291 12.291 0 0 0 1.45 3.12 7.855 7.855 0 0 0 5.707 3.512 12.119 12.119 0 0 0 1.718.115h0z" fill="#FFF" stroke-width=".945" stroke="#FFF" fill-rule="evenodd" stroke-linecap="round"/></svg>