<?xml version="1.0" encoding="UTF-8"?>
<svg viewBox="0 0 40 40" xmlns="http://www.w3.org/2000/svg">
    <path d="m28.589 14.135c-0.0047-0.0024-0.0092-0.0041-0.0136-0.0058-0.0083-0.0032-0.016-0.0061-0.0232-0.013-0.0233-0.022-0.0325-0.0615-0.0274-0.0931l0.7723-4.7264 3.6257 3.6258-3.7701 1.6041c-0.0104 0.0045-0.0217 0.0068-0.033 0.0068-0.0074 0-0.0116 0-0.0153-0.0013-0.0051-0.0018-0.0093-6e-3 -0.0192-0.0157-0.1332-0.1482-0.2986-0.2804-0.4962-0.3814zm5.2582-0.2881 3.8763 3.8762c0.8053 0.8054 1.208 1.2081 1.3553 1.6738 0.0218 0.0688 0.0397 0.1384 0.0538 0.2087l-9.2632-3.9223c-0.0047-2e-3 -0.0096-4e-3 -0.0146-6e-3 -0.0375-0.0152-0.0804-0.0325-0.0804-0.0708 0-0.0376 0.0442-0.0557 0.081-0.0709 4e-3 -0.0016 0.0079-0.0032 0.0116-0.0047l3.9802-1.684zm5.127 7.0031c-0.1999 0.376-0.5897 0.7658-1.2507 1.4269l-4.3689 4.3688-5.6522-1.1771c-0.0094-2e-3 -0.0196-0.0036-0.0299-0.0053-0.0494-0.0081-0.1035-0.017-0.1035-0.0628-0.0517-0.477-0.2757-0.9028-0.6548-1.1923-0.0231-0.0229-0.0166-0.0591-0.0106-0.0924 8e-4 -0.0047 0.0016-0.0093 0.0024-0.0138l1.0637-6.526c0.0011-0.0069 0.0021-0.0142 0.0032-0.0216 0.0069-0.0498 0.0151-0.1083 0.0613-0.1083 0.4754-0.0671 0.8838-0.2996 1.1594-0.6649 0.0083-0.0109 0.0148-0.0212 0.0271-0.0271 0.0315-0.0149 0.0706 7e-4 0.1027 0.0142l9.6508 4.0817zm-6.6251 6.8012-7.186 7.186 1.231-7.5605c5e-4 -0.0035 1e-3 -7e-3 0.0014-0.0105 0.0013-0.0095 0.0025-0.0189 6e-3 -0.028 0.0096-0.0243 0.036-0.0347 0.061-0.0446 4e-3 -0.0016 0.0079-0.0031 0.0117-0.0047 0.2731-0.1136 0.5048-0.2939 0.6952-0.5168 0.0242-0.0283 0.0532-0.0547 0.09-0.061 0.0082-0.0014 0.0207-5e-4 0.0289 0.0012l5.0608 1.0389zm-8.7067 8.7068-0.8103 0.8103-8.9544-12.942c-0.0033-0.0047-0.0068-0.0094-0.0104-0.0141-0.0141-0.0185-0.0285-0.0376-0.0264-0.06 0.0014-0.0162 0.0117-0.0293 0.022-0.0423 0.0033-0.0042 0.0067-0.0085 0.0097-0.0128 0.0274-0.0392 0.0507-0.0792 0.0762-0.1231 0.0066-0.0113 0.0133-0.0229 0.0203-0.0348l2e-3 -0.0033c0.0139-0.0237 0.0271-0.0462 0.0514-0.0592 0.0211-0.0112 0.0496-0.0065 0.073-0.0016l9.9212 2.046c0.0247 0.0051 0.0581 0.0155 0.0761 0.0332 0.0128 0.0128 0.0155 0.0267 0.0185 0.0425 0.0011 0.0063 0.0024 0.0129 0.0043 0.0197 0.1456 0.5126 0.519 0.956 1.0239 1.1557 0.028 0.0138 0.0156 0.0454 0.0026 0.0785-6e-3 0.0152-0.0121 0.0307-0.0145 0.0449-0.1248 0.7604-1.1974 7.2978-1.4852 9.0627zm-1.6921 1.6911c-0.5968 0.591-0.9488 0.9035-1.3469 1.0294-0.3924 0.1241-0.8137 0.1241-1.2061 0-0.4658-0.1473-0.8685-0.55-1.6738-1.3554l-8.9927-8.9927 2.3484-3.6435c0.0116-0.018 0.0221-0.0343 0.0396-0.0467 0.0255-0.0181 0.0619-0.0094 0.0917-1e-4 0.2417 0.0746 0.4698 0.1049 0.7132 0.1049 0.3141 0 0.6123-0.0627 0.925-0.1881 0.0264-0.0106 0.0538-0.0169 0.075 0.0019 0.0101 9e-3 0.0205 0.0214 0.0281 0.0325l8.9985 13.058zm-14.087-10.186-2.0637-2.0637 4.0748-1.7379c0.01046-0.0045 0.02171-0.0068 0.03308-0.0068 0.03376 0 0.05353 0.0338 0.07198 0.0653 0.00454 0.0078 9e-3 0.0154 0.01357 0.0223 0.03888 0.0591 0.07775 0.1106 0.11663 0.1619 0.00306 4e-3 0.00997 0.0117 0.01282 0.0158 0.01155 0.017 0.00309 0.0335-0.00802 0.0507l-2.2512 3.4924zm-2.9761-2.9761-2.6103-2.6102c-0.44395-0.444-0.76554-0.7656-0.98944-1.0428l7.9352 1.6455c0.00937 0.0019 0.01948 0.0036 0.0298 0.0053 0.04945 8e-3 0.10357 0.0169 0.10357 0.0627 0 0.0497-0.05871 0.073-0.10888 0.0928-0.00801 0.0032-0.0158 0.0063-0.0231 0.0094l-4.3369 1.8373zm-4.0558-4.9952c0.0090482-0.1672 0.039104-0.3335 0.090169-0.495 0.14729-0.4657 0.54998-0.8684 1.3554-1.6738l3.341-3.341c0.55052 0.808 4.187 6.0612 4.6114 6.6692 0.00414 0.0059 0.00866 0.012 0.01327 0.0182 0.0271 0.0366 0.05696 0.0769 0.02671 0.1068-0.14636 0.1607-0.29272 0.3366-0.39562 0.5278-0.01215 0.0225-0.02771 0.0481-0.0495 0.0616-0.01326 0.0082-0.02683 0.0053-0.04195 0.0021l-0.00226-4e-4 -8.9486-1.8755zm5.6793-6.4026 4.4913-4.4913c0.4221 0.18467 1.9585 0.83394 3.3318 1.4143 1.0409 0.43989 1.9885 0.84039 2.2858 0.96879 0.0299 0.0129 0.0572 0.0247 0.0704 0.0545 0.0079 0.0179 4e-3 0.0415 0 0.0607-0.0303 0.1437-0.0454 0.2874-0.0454 0.4311 0 0.528 0.2068 1.022 0.5686 1.3967 0.0298 0.0294-3e-4 0.0725-0.0266 0.1103-0.0049 0.0071-0.0097 0.014-0.0139 0.0206l-4.5593 7.0632c-0.0124 0.0192-0.0237 0.0368-0.0429 0.0493-0.0242 0.0158-0.0581 0.0087-0.0861 0.0016-0.1777-0.045-0.3681-0.0742-0.5437-0.0742-0.1632 0-0.3418 0.0306-0.5213 0.0627l-0.0016 3e-4c-0.0194 0.0035-0.0374 0.0068-0.0535-0.0049-0.0176-0.0127-0.0329-0.0331-0.0452-0.051l-4.8084-7.0127zm5.3981-5.3981 5.8144-5.8143c0.8053-0.80538 1.208-1.2081 1.6738-1.3554 0.3924-0.12412 0.8137-0.12412 1.2061 1e-7 0.4658 0.14729 0.8685 0.54998 1.6738 1.3554l1.26 1.26-4.135 6.4045c-0.0119 0.01842-0.0228 0.03521-0.0409 0.04767-0.025 0.01719-0.0604 0.00909-0.0896 7.9e-4 -0.2093-0.05952-0.4187-0.08928-0.6281-0.08928-0.4652 0-0.9304 0.17033-1.2922 0.45989-0.0268 0.02649-0.0669 0.01016-0.1014-0.00484-0.54-0.23443-4.74-2.0103-5.3409-2.2644zm12.506-3.6766 3.8189 3.8189-0.9195 5.6972c-7e-4 0.0046-0.0013 0.0099-0.0018 0.0154-0.0014 0.0131-3e-3 0.0275-0.0076 0.0378-9e-3 0.02-0.0287 0.0245-0.0497 0.0293-0.0071 0.0016-0.0144 0.0033-0.0215 0.0056-0.1934 0.0632-0.3728 0.1522-0.5269 0.2672-0.0072 0.0054-0.0132 0.0117-0.019 0.0178-0.0116 0.0123-0.0225 0.0237-0.0404 0.0248-0.0118 7e-4 -0.0317-0.0019-0.0426-0.0066l-5.8182-2.4721c-0.0038-0.0016-0.0077-0.0032-0.0117-0.0049-0.0368-0.0151-0.0809-0.0333-0.0809-0.0709-0.0314-0.311-0.1347-0.6219-0.2966-0.894-0.0041-0.0068-0.0083-0.0137-0.0127-0.0207-0.0285-0.0459-0.0589-0.09466-0.0353-0.14131l4.0655-6.3034zm-3.9313 8.6064 5.4535 2.3104c0.0312 0.0132 0.0631 0.0267 0.0758 0.0581 0.0067 0.0168 0.0035 0.0387 1e-4 0.0563-0.0153 0.0795-0.0292 0.1713-0.0292 0.263v0.1533c0 0.0375-0.0392 0.0538-0.075 0.0685-4e-3 0.0017-8e-3 0.0033-0.0118 0.0049-0.8637 0.3684-12.13 5.1727-12.147 5.1727-0.0172 0-0.0344 0-0.0517-0.017-0.0297-0.0294 3e-4 -0.0725 0.0266-0.1104 0.0049-7e-3 0.0097-0.0139 0.014-0.0205l4.4824-6.9391c0.0026-4e-3 0.0052-0.0081 0.0078-0.0122 0.0265-0.0419 0.0562-0.0886 0.1042-0.0886 0.0153 0.0021 0.0304 0.0043 0.0452 0.0064 0.1017 0.0147 0.1919 0.0277 0.2822 0.0277 0.6801 0 1.3099-0.3318 1.6907-0.8971 0.0101-0.015 0.0192-0.0284 0.0335-0.0396 0.0272-0.0211 0.0668-0.0103 0.0985 0.0032zm-6.2459 9.1846 12.28-5.2364s0.0173 1e-4 0.0345 0.0171c0.0673 0.0664 0.124 0.1122 0.1785 0.1534 0.0081 0.0061 0.0176 0.0116 0.0272 0.0172 0.0252 0.0146 0.0508 0.0295 0.0525 0.0562 5e-4 0.0092-5e-4 0.0162-2e-3 0.0253l-1.0526 6.4616c-0.0014 0.0082-0.0025 0.0169-0.0037 0.0257-0.0067 0.0508-0.0142 0.1077-0.0614 0.1077-0.5708 0.0332-1.0761 0.3574-1.3726 0.8466-0.0016 0.0027-0.0032 0.0053-0.0048 0.0079-0.0137 0.0231-0.0269 0.0452-0.051 0.0573-0.0203 0.0101-0.0474 0.0057-0.0695 0.0011l-9.7925-2.0202c-0.0093-0.0019-0.1525-0.5189-0.1628-0.5205z"/>
</svg>
